<svg xmlns="http://www.w3.org/2000/svg" width="49" height="49" viewBox="0 0 49 49" fill="none">
  <path d="M24.5 48.5C37.7548 48.5 48.5 37.7548 48.5 24.5C48.5 11.2452 37.7548 0.5 24.5 0.5C11.2452 0.5 0.5 11.2452 0.5 24.5C0.5 37.7548 11.2452 48.5 24.5 48.5Z" fill="url(#paint0_linear_280_389)"/>
  <path opacity="0.66" d="M43.5167 14.9569C43.5167 22.0912 35.0051 27.8749 24.5055 27.8749C14.0055 27.8749 5.49414 22.0912 5.49414 14.9569C5.49414 7.82202 14.0055 2.03833 24.5055 2.03833C35.0051 2.03816 43.5167 7.82202 43.5167 14.9569Z" fill="url(#paint1_linear_280_389)"/>
  <defs>
    <linearGradient id="paint0_linear_280_389" x1="24.5001" y1="0.49985" x2="24.5001" y2="48.5001" gradientUnits="userSpaceOnUse">
      <stop stop-color="#735AFF"/>
      <stop offset="1" stop-color="#8352FF"/>
    </linearGradient>
    <linearGradient id="paint1_linear_280_389" x1="24.5054" y1="2.03821" x2="24.5054" y2="27.8748" gradientUnits="userSpaceOnUse">
      <stop stop-color="white" stop-opacity="0.8"/>
      <stop offset="1" stop-color="white" stop-opacity="0"/>
    </linearGradient>
  </defs>
</svg>