<svg width="33" height="33" viewBox="0 0 33 33" fill="none" xmlns="http://www.w3.org/2000/svg">
<g id="arrow_drop_down">
<mask id="mask0_280_447" style="mask-type:alpha" maskUnits="userSpaceOnUse" x="0" y="0" width="33" height="33">
<rect id="Bounding box" x="0.333496" y="0.5" width="32" height="32" fill="#D9D9D9"/>
</mask>
<g mask="url(#mask0_280_447)">
<path id="arrow_drop_down_2" d="M15.6334 19.8002L10.8001 14.9668C10.7334 14.9002 10.6834 14.8279 10.6501 14.7502C10.6168 14.6724 10.6001 14.5891 10.6001 14.5002C10.6001 14.3224 10.6612 14.1668 10.7834 14.0335C10.9057 13.9002 11.0668 13.8335 11.2668 13.8335H21.4001C21.6001 13.8335 21.7612 13.9002 21.8834 14.0335C22.0057 14.1668 22.0668 14.3224 22.0668 14.5002C22.0668 14.5446 22.0001 14.7002 21.8668 14.9668L17.0334 19.8002C16.9223 19.9113 16.8112 19.9891 16.7001 20.0335C16.589 20.0779 16.4668 20.1002 16.3334 20.1002C16.2001 20.1002 16.0779 20.0779 15.9668 20.0335C15.8557 19.9891 15.7445 19.9113 15.6334 19.8002Z" fill="#1C1B1F"/>
</g>
</g>
</svg>
